<?xml version="1.0" encoding="UTF-8"?>
<svg width="49px" height="49px" viewBox="0 0 49 49" version="1.1" xmlns="http://www.w3.org/2000/svg" xmlns:xlink="http://www.w3.org/1999/xlink">
    <title>B204529C-82C8-416D-BAA0-183580F0ED59@3x</title>
    <g id="Pages" stroke="none" stroke-width="1" fill="none" fill-rule="evenodd">
        <g id="gameforgood_Home" transform="translate(-317.000000, -680.000000)" fill="#BD5E3D" fill-rule="nonzero">
            <path d="M364.564453,683.536557 L358.276459,683.536557 C358.299263,682.840087 358.311974,682.139505 358.311974,681.435558 C358.311974,680.642636 357.668968,680 356.876427,680 L326.123947,680 C325.331032,680 324.6884,680.642636 324.6884,681.435558 C324.6884,682.139505 324.700737,682.840087 324.723541,683.536557 L318.435547,683.536557 C317.642632,683.536557 317,684.179193 317,684.972114 C317,691.40446 318.68116,697.473057 321.733566,702.060486 C324.750832,706.595578 328.769989,709.196779 333.111397,709.449871 C334.095718,710.520931 335.13649,711.394229 336.220253,712.060418 L336.220253,718.440799 L333.811974,718.440799 C330.900505,718.440799 328.532227,720.80947 328.532227,723.720587 L328.532227,726.128884 L328.430168,726.128884 C327.637253,726.128884 326.994621,726.771895 326.994621,727.564442 C326.994621,728.357364 327.637253,729 328.430168,729 L354.569832,729 C355.362747,729 356.005379,728.357364 356.005379,727.564442 C356.005379,726.771895 355.362747,726.128884 354.569832,726.128884 L354.467773,726.128884 L354.467773,723.720587 C354.467773,720.80947 352.099121,718.440799 349.188026,718.440799 L346.779747,718.440799 L346.779747,712.060418 C347.86351,711.394229 348.903908,710.520931 349.888229,709.449871 C354.230011,709.196779 358.248795,706.595578 361.266434,702.060486 C364.31884,697.473057 366,691.40446 366,684.972114 C366,684.179193 365.356995,683.536557 364.564453,683.536557 Z M324.123901,700.470157 C321.606087,696.686117 320.126801,691.737554 319.901375,686.407672 L324.883919,686.407672 C325.401688,692.959648 326.939667,699.015534 329.34346,703.823157 C329.726273,704.588788 330.126656,705.3118 330.541992,705.993317 C328.154274,705.091607 325.944504,703.206689 324.123901,700.470157 Z M358.876099,700.470157 C357.055496,703.206689 354.845726,705.091607 352.458008,705.993317 C352.873718,705.3118 353.273727,704.588788 353.65654,703.823157 C356.060333,699.015534 357.597939,692.959648 358.116081,686.407672 L363.098625,686.407672 C362.873199,691.737554 361.393913,696.686117 358.876099,700.470157 Z" id="Tournament"></path>
        </g>
    </g>
</svg>