<?xml version="1.0" encoding="UTF-8"?>
<svg width="82px" height="65px" viewBox="0 0 82 65" version="1.1" xmlns="http://www.w3.org/2000/svg" xmlns:xlink="http://www.w3.org/1999/xlink">
    <title>AD2F2C13-86A9-419B-B49B-73C47A62486B@3x</title>
    <g id="Pages" stroke="none" stroke-width="1" fill="none" fill-rule="evenodd">
        <g id="gameforgood_Home" transform="translate(-1073.000000, -667.000000)" fill="#CCA93A">
            <g id="Challenge" transform="translate(1073.000000, 667.000000)">
                <path d="M34.6048609,27.8571429 L29.0525296,27.8571429 L29.0525296,28.763673 C29.0525296,30.7843371 27.2552715,32.4282698 25.0461451,32.4282698 C24.73548,32.4282698 24.4333786,32.3946709 24.1428571,32.3331878 C24.4346174,32.440389 24.7526613,32.5 25.0857861,32.5 L34.6048609,32.5 C36.0043082,32.5 37.1428571,31.4585816 37.1428571,30.1785714 C37.1428571,28.898512 36.0043082,27.8571429 34.6048609,27.8571429" id="Fill-3"></path>
                <path d="M34.559278,40.8571429 L24.8692386,40.8571429 C23.444657,40.8571429 22.2857143,41.8986327 22.2857143,43.1785714 C22.2857143,44.4585102 23.444657,45.5 24.8692386,45.5 L34.559278,45.5 C35.9838596,45.5 37.1428571,44.4585102 37.1428571,43.1785714 C37.1428571,41.8986327 35.9838596,40.8571429 34.559278,40.8571429" id="Fill-4"></path>
                <path d="M34.559278,34.3571429 L24.8692386,34.3571429 C23.444657,34.3571429 22.2857143,35.3986327 22.2857143,36.6785714 C22.2857143,37.9585102 23.444657,39 24.8692386,39 L34.559278,39 C35.9838596,39 37.1428571,37.9585102 37.1428571,36.6785714 C37.1428571,35.3986327 35.9838596,34.3571429 34.559278,34.3571429" id="Fill-5"></path>
                <path d="M22.9797941,39.5977129 C21.9377125,38.8539288 21.2566184,37.6373727 21.2566184,36.2648619 C21.2566184,34.8918059 21.9377671,33.6752498 22.9798488,32.932011 C21.9377671,32.1881178 21.2566184,30.9717799 21.2566184,29.5988874 C21.2566184,29.3343642 21.2824695,29.0707134 21.3328056,28.8126247 C21.2832893,28.5600979 21.2566184,28.2996099 21.2566184,28.0327964 L21.2566184,27.9018708 C21.1751844,28.0619698 21.0898153,28.2227231 21.000074,28.3837491 C19.092934,31.8059741 16.1895667,33.614722 12.6039029,33.614722 C12.1813207,33.614722 11.8387515,33.2733665 11.8387515,32.8513071 C11.8387515,32.4297931 12.1813207,32.0880559 12.6039029,32.0880559 C15.6303503,32.0880559 17.9983301,30.6044683 19.6420941,27.6785174 C20.9166725,25.4097031 21.2608813,23.0896855 21.2642152,23.0665104 C21.3211643,22.669971 21.6755934,22.3844538 22.0760956,22.4129183 C22.4765431,22.4413827 22.7869213,22.7734137 22.7869213,23.1739883 L22.7869213,28.0327964 C22.7869213,29.4274462 23.924155,30.5621533 25.3220321,30.5621533 C26.7199092,30.5621533 27.8571429,29.4274462 27.8571429,28.0327964 L27.8571429,18.3150712 C27.8571429,16.9204213 26.7199092,15.7857143 25.3220321,15.7857143 L17.2320856,15.7857143 C15.1831192,15.7857143 13.1965674,16.5168476 11.6383911,17.8443169 C10.0802148,19.1718952 9.04534742,21.0149422 8.72442103,23.0340108 L8.61046811,23.7508027 C8.5514968,24.1216042 8.23106229,24.3946341 7.85477173,24.3946341 L-3.26849658e-13,24.3946341 L-3.26849658e-13,39.958699 L7.93522194,39.958699 C8.29517105,39.958699 8.60647839,40.20899 8.68293889,40.5596156 C8.98681333,41.9544835 9.76748644,43.2157538 10.8812191,44.1111303 C11.9949517,45.0070521 13.3960533,45.5 14.826504,45.5 L22.1680231,45.5 C21.5985864,44.7965678 21.2566184,43.9028272 21.2566184,42.9305639 C21.2566184,41.5575078 21.9377125,40.341497 22.9797941,39.5977129" id="Fill-6"></path>
                <path d="M73.8595672,24.3946341 C73.4830085,24.3946341 73.1627424,24.1216042 73.1037172,23.7508027 L72.9900392,23.0339562 C72.6686799,21.0149422 71.6341001,19.1718952 70.0759451,17.8443169 C68.5177902,16.5168476 66.5311564,15.7857143 64.4822182,15.7857143 L56.3924921,15.7857143 C54.9944702,15.7857143 53.8571429,16.9204213 53.8571429,18.3150712 L53.8571429,28.0327964 C53.8571429,29.4274462 54.9944702,30.5621533 56.3924921,30.5621533 C57.7905139,30.5621533 58.9272948,29.4274462 58.9272948,28.0327964 L58.9272948,23.1739883 C58.9272948,22.7730865 59.2382699,22.4404557 59.6388759,22.4124275 C60.0400284,22.3848355 60.3941793,22.6703527 60.4504718,23.0673284 C60.4532045,23.0896855 60.7975179,25.4097031 62.0720241,27.6785174 C63.7159842,30.6044683 66.0840954,32.0880559 69.1102279,32.0880559 C69.5326951,32.0880559 69.8753689,32.4297931 69.8753689,32.8513071 C69.8753689,33.2733665 69.5326951,33.614722 69.1102279,33.614722 C65.5244495,33.614722 62.6212861,31.8059741 60.7144455,28.3837491 C60.6242681,28.2227231 60.5390096,28.0619698 60.4575767,27.9018708 L60.4575767,28.0327964 C60.4575767,28.2995554 60.4313433,28.5600979 60.3816092,28.8126247 C60.4318898,29.0706589 60.4575767,29.3342551 60.4575767,29.5988874 C60.4575767,30.9717799 59.7766013,32.1881178 58.73437,32.932011 C59.7766013,33.6752498 60.4575767,34.8918059 60.4575767,36.2648619 C60.4575767,37.6373727 59.7766013,38.8539288 58.73437,39.5977129 C59.7766013,40.341497 60.4575767,41.5575078 60.4575767,42.9305639 C60.4575767,43.9028272 60.1159959,44.7965678 59.5465124,45.5 L66.88804,45.5 C68.318307,45.5 69.7190615,45.0070521 70.8328882,44.1111303 C71.9467148,43.2157538 72.7271586,41.9544835 73.0310288,40.5601609 C73.1075429,40.20899 73.4190646,39.958699 73.7786809,39.958699 L81.7142857,39.958699 L81.7142857,24.3946341 L73.8595672,24.3946341" id="Fill-7"></path>
                <path d="M56.8451019,40.8571429 L47.1548981,40.8571429 C45.7304809,40.8571429 44.5714286,41.8986327 44.5714286,43.1785714 C44.5714286,44.4585102 45.7304809,45.5 47.1548981,45.5 L56.8451019,45.5 C58.2695191,45.5 59.4285714,44.4585102 59.4285714,43.1785714 C59.4285714,41.8986327 58.2695191,40.8571429 56.8451019,40.8571429" id="Fill-8"></path>
                <path d="M47.1930155,25.0714286 L52.9285714,25.0714286 L52.9285714,20.4285714 L47.1930155,20.4285714 C45.747582,20.4285714 44.5714286,21.4699296 44.5714286,22.7499754 C44.5714286,24.0300212 45.747582,25.0714286 47.1930155,25.0714286" id="Fill-9"></path>
                <path d="M47.109275,32.5 L56.6283536,32.5 C56.9617422,32.5 57.2795116,32.440389 57.5714286,32.3331878 C57.2805888,32.3946709 56.9789771,32.4282698 56.6682094,32.4282698 C54.4589042,32.4282698 52.6616221,30.7843371 52.6616221,28.763673 L52.6616221,27.8571429 L47.109275,27.8571429 C45.7100125,27.8571429 44.5714286,28.898512 44.5714286,30.1785714 C44.5714286,31.4585816 45.7100125,32.5 47.109275,32.5" id="Fill-10"></path>
                <path d="M47.1548981,39 L56.8451019,39 C58.2695191,39 59.4285714,37.9585102 59.4285714,36.6785714 C59.4285714,35.3986327 58.2695191,34.3571429 56.8451019,34.3571429 L47.1548981,34.3571429 C45.7304809,34.3571429 44.5714286,35.3986327 44.5714286,36.6785714 C44.5714286,37.9585102 45.7304809,39 47.1548981,39" id="Fill-11"></path>
                <path d="M34.5211589,20.4285714 L28.7857143,20.4285714 L28.7857143,25.0714286 L34.5211589,25.0714286 C35.9667594,25.0714286 37.1428571,24.0300212 37.1428571,22.7499754 C37.1428571,21.4699296 35.9667594,20.4285714 34.5211589,20.4285714" id="Fill-12"></path>
                <path d="M40.8571429,8.8817842e-16 C40.3443061,8.8817842e-16 39.9285714,0.344656355 39.9285714,0.769813172 L39.9285714,12.2301868 C39.9285714,12.6553436 40.3443061,13 40.8571429,13 C41.3698469,13 41.7857143,12.6553436 41.7857143,12.2301868 L41.7857143,0.769813172 C41.7857143,0.344656355 41.3698469,8.8817842e-16 40.8571429,8.8817842e-16" id="Fill-13"></path>
                <path d="M34.8480673,14.5035456 C34.9895753,14.7322537 35.2289526,14.8571429 35.4734669,14.8571429 C35.6101556,14.8571429 35.748433,14.8181218 35.8721466,14.736413 C36.2171252,14.5084711 36.3180132,14.0346913 36.0974366,13.6781388 L30.1519302,4.06791209 C29.9314066,3.71141427 29.4728826,3.60704808 29.1279039,3.83504469 C28.7828723,4.06298657 28.6819843,4.53676637 28.902561,4.89331892 L34.8480673,14.5035456" id="Fill-14"></path>
                <path d="M40.8571429,52 C40.3443061,52 39.9285714,52.3447678 39.9285714,52.7698164 L39.9285714,64.2301836 C39.9285714,64.6557821 40.3443061,65 40.8571429,65 C41.3698469,65 41.7857143,64.6557821 41.7857143,64.2301836 L41.7857143,52.7698164 C41.7857143,52.3447678 41.3698469,52 40.8571429,52" id="Fill-15"></path>
                <path d="M35.8721466,50.2634721 C35.5271679,50.0358031 35.068644,50.1397866 34.8480673,50.4966139 L28.902561,60.1068707 C28.6819843,60.4631507 28.7828723,60.9370962 29.1279039,61.1653124 C29.2516175,61.2468573 29.389842,61.2857143 29.5265836,61.2857143 C29.7710979,61.2857143 30.0104752,61.1609342 30.1519302,60.9321707 L36.0974366,51.3219138 C36.3180132,50.9656338 36.2171252,50.4916883 35.8721466,50.2634721" id="Fill-16"></path>
                <path d="M45.8420446,14.7364124 C45.9659665,14.8181216 46.1041871,14.8571429 46.240819,14.8571429 C46.4854853,14.8571429 46.7248558,14.732253 46.8662539,14.5035437 L52.8118574,4.89326605 C53.0321631,4.53671161 52.9315427,4.0629293 52.586256,3.83498621 C52.2414989,3.60715257 51.782882,3.7113004 51.5625764,4.06785484 L45.6169728,13.6781325 C45.3961376,14.034687 45.4972875,14.5084693 45.8420446,14.7364124" id="Fill-17"></path>
                <path d="M46.8662539,50.4966139 C46.6459483,50.1397866 46.1873313,50.0358031 45.8420446,50.2634721 C45.4972875,50.4916883 45.3961376,50.9656338 45.6169728,51.3219138 L51.5625764,60.9321707 C51.7039744,61.1609342 51.9433449,61.2857143 52.1874817,61.2857143 C52.3241135,61.2857143 52.4628637,61.2468573 52.586256,61.1653124 C52.9315427,60.9370962 53.0321631,60.4631507 52.8118574,60.1068707 L46.8662539,50.4966139" id="Fill-18"></path>
            </g>
        </g>
    </g>
</svg>