<?xml version="1.0" encoding="UTF-8"?>
<svg width="51px" height="57px" viewBox="0 0 51 57" version="1.1" xmlns="http://www.w3.org/2000/svg" xmlns:xlink="http://www.w3.org/1999/xlink">
    <title>F359BA74-CF33-40BB-B22F-0F591B9641FE@3x</title>
    <g id="Pages" stroke="none" stroke-width="1" fill="none" fill-rule="evenodd">
        <g id="gameforgood_Home" transform="translate(-694.000000, -673.000000)" fill="#179AA4">
            <g id="PAYG" transform="translate(694.000000, 673.000000)">
                <g id="Group-4" transform="translate(-0.000000, 6.168292)">
                    <path d="M25.3791077,48.3272381 C12.7255886,48.3272381 2.43107329,38.0327228 2.43107329,25.3791077 C2.43107329,12.7255886 12.7255886,2.43116926 25.3791077,2.43116926 C38.0326269,2.43116926 48.3271422,12.7255886 48.3271422,25.3791077 C48.3271422,38.0327228 38.0326269,48.3272381 25.3791077,48.3272381 Z M25.3791077,3.33955086e-13 C11.384962,3.33955086e-13 4.47641924e-13,11.384962 4.47641924e-13,25.3791077 C4.47641924e-13,39.3733494 11.384962,50.7583114 25.3791077,50.7583114 C39.3732535,50.7583114 50.7582155,39.3733494 50.7582155,25.3791077 C50.7582155,11.384962 39.3732535,3.33955086e-13 25.3791077,3.33955086e-13 L25.3791077,3.33955086e-13 Z" id="Fill-1"></path>
                    <path d="M35.0478373,15.9644926 L28.5246381,24.4995914 C28.742094,25.7530821 28.3415375,27.0445748 27.4295851,27.9566231 C26.6623475,28.7239567 25.6542385,29.1076235 24.6462254,29.1076235 C23.6382124,29.1076235 22.6301034,28.7239567 21.8627698,27.9566231 C20.3278148,26.42186 20.3278148,23.9244751 21.8627698,22.3897119 C22.7428619,21.5095238 23.9966405,21.1037852 25.2188467,21.2817997 L33.8595067,14.7681969 C34.1993176,14.512355 34.6757823,14.5465184 34.975384,14.8480395 C35.2749857,15.1497524 35.3059823,15.626505 35.0478373,15.9644926 Z M25.3791077,6.54277606 C14.9150228,6.54277606 6.40180394,15.055899 6.40180394,25.5198879 C6.40180394,35.9838769 14.9150228,44.4969998 25.3791077,44.4969998 C35.8430967,44.4969998 44.3563155,35.9838769 44.3563155,25.5198879 C44.3563155,15.055899 35.8430967,6.54277606 25.3791077,6.54277606 L25.3791077,6.54277606 Z" id="Fill-2"></path>
                </g>
                <rect id="Rectangle" x="17.2276386" y="4.97379915e-14" width="14.6434928" height="8.61381931" rx="2"></rect>
            </g>
        </g>
    </g>
</svg>