<?xml version="1.0" encoding="UTF-8"?>
<svg width="21px" height="15px" viewBox="0 0 21 15" version="1.1" xmlns="http://www.w3.org/2000/svg" xmlns:xlink="http://www.w3.org/1999/xlink">
    <!-- Generator: Sketch 59.1 (86144) - https://sketch.com -->
    <title>Youtube</title>
    <desc>Created with Sketch.</desc>
    <g id="Page-1" stroke="none" stroke-width="1" fill="none" fill-rule="evenodd">
        <g id="gwb-kafu-landing" transform="translate(-968.000000, -4365.000000)" fill="#FFFFFF">
            <g id="Group-5" transform="translate(835.000000, 4361.475945)">
                <path d="M143.598033,3.74183991 C144.7196,3.74764481 147.976953,3.77915711 150.290586,3.95022389 C150.686419,3.99811714 151.550286,4.00200038 152.321053,4.8271881 C152.928419,5.45562517 153.126653,6.88271452 153.126653,6.88271452 C153.126653,6.88271452 153.329319,8.55897821 153.329319,10.2345947 L153.329319,10.2345947 L153.329319,11.806011 C153.329319,13.4822747 153.126653,15.1578911 153.126653,15.1578911 C153.126653,15.1578911 152.928419,16.5849805 152.321053,17.2134176 C151.550286,18.0386053 150.686419,18.0424885 150.290586,18.091029 C147.827686,18.2731323 144.292025,18.3019742 143.404229,18.3064114 L143.151206,18.306755 C142.636987,18.3015567 137.839013,18.249402 136.305319,18.0987954 C135.854386,18.012717 134.841686,18.0386053 134.070286,17.2134176 C133.462919,16.5849805 133.265319,15.1578911 133.265319,15.1578911 C133.265319,15.1578911 133.062653,13.4822747 133.062653,11.806011 L133.062653,11.806011 L133.062653,10.2345947 C133.062653,8.55897821 133.265319,6.88271452 133.265319,6.88271452 C133.265319,6.88271452 133.462919,5.45562517 134.070286,4.8271881 C134.841686,4.00200038 135.704919,3.99811714 136.101386,3.95022389 C138.415019,3.77915711 141.672371,3.74764481 142.793939,3.74183991 Z M141.102819,7.89106156 L141.103453,13.7100912 L146.578619,10.8106081 L141.102819,7.89106156 Z" id="Youtube"></path>
            </g>
        </g>
    </g>
</svg>