<svg xmlns="http://www.w3.org/2000/svg" xmlns:xlink="http://www.w3.org/1999/xlink" width="39px" height="39px" viewBox="0 0 39 39" version="1.1">
    <!-- Generator: Sketch 59 (86127) - https://sketch.com -->
    <title>discord@3x</title>
    <desc>Created with Sketch.</desc>
    <g id="Web2020" stroke="none" stroke-width="1" fill="none" fill-rule="evenodd">
        <g id="SAIB_Tournament" transform="translate(-1074.000000, -676.000000)" fill="#FFFFFF">
            <path d="M1093.5,676 C1104.26955,676 1113,684.730447 1113,695.5 C1113,706.269553 1104.26955,715 1093.5,715 C1082.73045,715 1074,706.269553 1074,695.5 C1074,684.730447 1082.73045,676 1093.5,676 Z M1089.55342,686.000185 C1089.55342,686.000185 1086.47385,685.932936 1083.23692,688.360628 C1083.23692,688.360628 1080,694.227551 1080,701.46567 C1080,701.46567 1081.8882,704.725072 1086.85598,704.882422 C1086.85598,704.882422 1087.68769,703.870884 1088.36205,703.016696 C1085.50726,702.162508 1084.42829,700.364217 1084.42829,700.364217 C1084.42829,700.364217 1084.65308,700.521568 1085.05769,700.746354 C1085.08017,700.768833 1085.10265,700.791311 1085.14761,700.81379 C1085.21504,700.858747 1085.28248,700.881226 1085.34991,700.926183 C1085.91188,701.240884 1086.47385,701.488149 1086.99085,701.690456 C1087.91248,702.050115 1089.01393,702.409773 1090.29521,702.657038 C1091.98111,702.971738 1093.95923,703.084132 1096.11718,702.679516 C1097.17367,702.499687 1098.25265,702.184986 1099.37658,701.712935 C1100.16333,701.420713 1101.04,700.993619 1101.96162,700.386696 C1101.96162,700.386696 1100.83769,702.229944 1097.89299,703.061653 C1098.56735,703.915841 1099.37658,704.882422 1099.37658,704.882422 C1104.34436,704.725072 1106.25504,701.46567 1106.25504,701.46567 C1106.25504,694.227551 1103.01812,688.360628 1103.01812,688.360628 C1100.0823,686.158768 1097.27593,686.009263 1096.77922,686.000502 L1096.77922,686.000502 L1096.70162,686.000185 L1096.38692,686.36003 C1100.20829,687.528919 1101.9841,689.214816 1101.9841,689.214816 C1099.64632,687.933534 1097.3535,687.304133 1095.21803,687.056868 C1093.59957,686.877039 1092.04855,686.921996 1090.67735,687.101825 C1090.54248,687.101825 1090.43008,687.124304 1090.29521,687.146782 C1089.50846,687.214218 1087.59778,687.50644 1085.19256,688.562936 C1084.36085,688.945073 1083.86632,689.214816 1083.86632,689.214816 C1083.86632,689.214816 1085.73205,687.439004 1089.7782,686.270116 L1089.7782,686.270116 Z M1088.92402,694.384901 C1090.2053,694.384901 1091.23932,695.508833 1091.21684,696.880029 C1091.21684,698.251226 1090.2053,699.375157 1088.92402,699.375157 C1087.66521,699.375157 1086.6312,698.251226 1086.6312,696.880029 C1086.6312,695.508833 1087.64273,694.384901 1088.92402,694.384901 Z M1097.12872,694.384901 C1098.41,694.384901 1099.42154,695.508833 1099.42154,696.880029 C1099.42154,698.251226 1098.41,699.375157 1097.12872,699.375157 C1095.86991,699.375157 1094.8359,698.251226 1094.8359,696.880029 C1094.8359,695.508833 1095.84743,694.384901 1097.12872,694.384901 Z" id="discord"/>
        </g>
    </g>
</svg>