<?xml version="1.0" encoding="UTF-8"?>
<svg width="21px" height="21px" viewBox="0 0 21 21" version="1.1" xmlns="http://www.w3.org/2000/svg" xmlns:xlink="http://www.w3.org/1999/xlink">
    <!-- Generator: sketchtool 53 (72520) - https://sketchapp.com -->
    <title>2866C268-6E8A-4F02-9D05-32B789AF1235@3x</title>
    <desc>Created with sketchtool.</desc>
    <g id="Page-1" stroke="none" stroke-width="1" fill="none" fillRule="evenodd">
        <g id="Default" transform="translate(-854.000000, -4954.000000)" fill="#FFFFFF">
            <path d="M864.734283,4954.26869 C861.98221,4954.26869 861.636829,4954.28072 860.555929,4954.32991 C859.47714,4954.37931 858.740776,4954.5501 858.096459,4954.80069 C857.429974,4955.05952 856.864612,4955.40574 856.301362,4955.9692 C855.73769,4956.53245 855.391464,4957.09782 855.131794,4957.76409 C854.88057,4958.40862 854.709568,4959.14519 854.661012,4960.22356 C854.612667,4961.30446 854.6,4961.65005 854.6,4964.40213 C854.6,4967.1542 854.612245,4967.49852 854.661223,4968.57942 C854.710834,4969.65821 854.881625,4970.39458 855.132006,4971.03889 C855.391042,4971.70538 855.737267,4972.27074 856.300729,4972.83399 C856.863768,4973.39766 857.429129,4973.74473 858.095192,4974.00356 C858.739932,4974.25415 859.476506,4974.42494 860.555084,4974.47434 C861.635984,4974.52353 861.981155,4974.53556 864.733017,4974.53556 C867.485301,4974.53556 867.829627,4974.52353 868.910527,4974.47434 C869.989316,4974.42494 870.726524,4974.25415 871.371264,4974.00356 C872.037537,4973.74473 872.602054,4973.39766 873.165093,4972.83399 C873.728766,4972.27074 874.074992,4971.70538 874.334661,4971.03911 C874.583775,4970.39458 874.754777,4969.658 874.805444,4968.57964 C874.854,4967.49874 874.866667,4967.1542 874.866667,4964.40213 C874.866667,4961.65005 874.854,4961.30467 874.805444,4960.22377 C874.754777,4959.14498 874.583775,4958.40862 874.334661,4957.7643 C874.074992,4957.09782 873.728766,4956.53245 873.165093,4955.9692 C872.601421,4955.40553 872.037748,4955.05931 871.37063,4954.80069 C870.724624,4954.5501 869.987838,4954.37931 868.909049,4954.32991 C867.828149,4954.28072 867.484034,4954.26869 864.731117,4954.26869 L864.734283,4954.26869 Z M863.825229,4956.09482 C864.095032,4956.09439 864.39608,4956.09482 864.734283,4956.09482 C867.439912,4956.09482 867.760593,4956.10453 868.829037,4956.15308 C869.817047,4956.19826 870.353275,4956.36335 870.710479,4956.50205 C871.183373,4956.68572 871.520521,4956.90528 871.87498,4957.25995 C872.22965,4957.61462 872.449208,4957.9524 872.633299,4958.4253 C872.772,4958.78208 872.937302,4959.31831 872.982269,4960.30632 C873.030825,4961.37455 873.041381,4961.69544 873.041381,4964.3998 C873.041381,4967.10417 873.030825,4967.42506 872.982269,4968.49329 C872.937091,4969.4813 872.772,4970.01753 872.633299,4970.37431 C872.44963,4970.8472 872.22965,4971.18393 871.87498,4971.53839 C871.52031,4971.89306 871.183584,4972.11262 870.710479,4972.29629 C870.353697,4972.43562 869.817047,4972.60029 868.829037,4972.64547 C867.760804,4972.69402 867.439912,4972.70458 864.734283,4972.70458 C862.028444,4972.70458 861.707763,4972.69402 860.63953,4972.64547 C859.651519,4972.59987 859.115291,4972.43478 858.757877,4972.29607 C858.284983,4972.11241 857.947202,4971.89285 857.592531,4971.53818 C857.237861,4971.18351 857.018303,4970.84657 856.834212,4970.37347 C856.695511,4970.01668 856.530209,4969.48046 856.485242,4968.49245 C856.436686,4967.42421 856.426975,4967.10332 856.426975,4964.39727 C856.426975,4961.69122 856.436686,4961.37202 856.485242,4960.30378 C856.53042,4959.31577 856.695511,4958.77955 856.834212,4958.42234 C857.017881,4957.94945 857.237861,4957.61167 857.592531,4957.257 C857.947202,4956.90233 858.284983,4956.68277 858.757877,4956.49868 C859.11508,4956.35934 859.651519,4956.19467 860.63953,4956.14928 C861.574339,4956.10706 861.93661,4956.09439 863.825229,4956.09228 L863.825229,4956.09482 Z M870.143429,4957.77739 C869.472088,4957.77739 868.927416,4958.32143 868.927416,4958.99298 C868.927416,4959.66432 869.472088,4960.20899 870.143429,4960.20899 C870.814769,4960.20899 871.359441,4959.66432 871.359441,4958.99298 C871.359441,4958.32164 870.814769,4957.77697 870.143429,4957.77697 L870.143429,4957.77739 Z M864.734283,4959.19818 C861.860398,4959.19818 859.53034,4961.52824 859.53034,4964.40213 C859.53034,4967.27601 861.860398,4969.60501 864.734283,4969.60501 C867.608169,4969.60501 869.937382,4967.27601 869.937382,4964.40213 C869.937382,4961.52824 867.607958,4959.19818 864.734072,4959.19818 L864.734283,4959.19818 Z M864.734283,4961.02431 C866.599681,4961.02431 868.112096,4962.53652 868.112096,4964.40213 C868.112096,4966.26752 866.599681,4967.77994 864.734283,4967.77994 C862.868675,4967.77994 861.35647,4966.26752 861.35647,4964.40213 C861.35647,4962.53652 862.868675,4961.02431 864.734283,4961.02431 L864.734283,4961.02431 Z" id="Shape"></path>
        </g>
    </g>
</svg>