<?xml version="1.0" encoding="UTF-8"?>
<svg width="13px" height="24px" viewBox="0 0 13 24" version="1.1" xmlns="http://www.w3.org/2000/svg" xmlns:xlink="http://www.w3.org/1999/xlink">
    <!-- Generator: sketchtool 63.1 (101010) - https://sketch.com -->
    <title>E80FC9B5-9F27-4852-86EF-FB9CC10807E6@3x</title>
    <desc>Created with sketchtool.</desc>
    <g id="Web" stroke="none" stroke-width="1" fill="none" fill-rule="evenodd">
        <g id="Signup_1" transform="translate(-717.000000, -583.000000)" fill="#FFFFFF" fill-rule="nonzero">
            <path d="M729.494556,583.004983 L726.38877,583 C722.899526,583 720.644623,585.313455 720.644623,588.894141 L720.644623,591.611735 L717.521895,591.611735 C717.252054,591.611735 717.03354,591.830498 717.03354,592.100339 L717.03354,596.037823 C717.03354,596.307664 717.252303,596.526177 717.521895,596.526177 L720.644623,596.526177 L720.644623,606.461702 C720.644623,606.731543 720.863137,606.950057 721.132978,606.950057 L725.207251,606.950057 C725.477092,606.950057 725.695606,606.731294 725.695606,606.461702 L725.695606,596.526177 L729.346804,596.526177 C729.616645,596.526177 729.835158,596.307664 729.835158,596.037823 L729.836653,592.100339 C729.836653,591.970775 729.785077,591.846694 729.693635,591.755002 C729.602193,591.663311 729.477613,591.611735 729.34805,591.611735 L725.695606,591.611735 L725.695606,589.307997 C725.695606,588.200728 725.959467,587.638621 727.401857,587.638621 L729.494058,587.637874 C729.763649,587.637874 729.982163,587.419111 729.982163,587.149519 L729.982163,583.493338 C729.982163,583.223995 729.763899,583.005482 729.494556,583.004983 Z" id="FB"></path>
        </g>
    </g>
</svg>