<?xml version="1.0" encoding="UTF-8"?>
<svg width="19px" height="16px" viewBox="0 0 19 16" version="1.1" xmlns="http://www.w3.org/2000/svg" xmlns:xlink="http://www.w3.org/1999/xlink">
    <!-- Generator: sketchtool 53 (72520) - https://sketchapp.com -->
    <title>71204CEE-3407-416F-8467-DB980B5CBC44@3x</title>
    <desc>Created with sketchtool.</desc>
    <g id="Page-1" stroke="none" stroke-width="1" fill="none" fillRule="evenodd">
        <g id="Default" transform="translate(-901.000000, -4956.000000)" fill="#FFFFFF">
            <path d="M909.897619,4960.84546 L909.937489,4961.5029 L909.272984,4961.4224 C906.854184,4961.1138 904.741057,4960.06726 902.946893,4958.30961 L902.069746,4957.43749 L901.843814,4958.08151 C901.36537,4959.51716 901.671042,4961.0333 902.6678,4962.05301 C903.199405,4962.61653 903.079794,4962.69703 902.162776,4962.3616 C901.843814,4962.25426 901.564721,4962.17376 901.538141,4962.21401 C901.445111,4962.30793 901.764073,4963.5289 902.016585,4964.01192 C902.362128,4964.68278 903.066504,4965.34022 903.83733,4965.72932 L904.488545,4966.03792 L903.717719,4966.05133 C902.973473,4966.05133 902.946893,4966.06475 903.026633,4966.34651 C903.292435,4967.21863 904.342354,4968.14442 905.511883,4968.54693 L906.33587,4968.82869 L905.618204,4969.25804 C904.554996,4969.87523 903.305726,4970.22408 902.056455,4970.25092 C901.458401,4970.26433 900.966667,4970.318 900.966667,4970.35825 C900.966667,4970.49243 902.58806,4971.24379 903.531657,4971.53897 C906.36245,4972.41109 909.724847,4972.0354 912.249968,4970.54609 C914.044132,4969.48614 915.838297,4967.37964 916.675573,4965.34022 C917.127437,4964.25343 917.579301,4962.26768 917.579301,4961.31506 C917.579301,4960.69787 917.619171,4960.61737 918.363417,4959.87942 C918.801991,4959.45007 919.213984,4958.98047 919.293725,4958.8463 C919.426626,4958.59137 919.413336,4958.59137 918.73554,4958.81946 C917.605881,4959.22198 917.4464,4959.16831 918.004584,4958.56453 C918.416577,4958.13518 918.908311,4957.35699 918.908311,4957.12889 C918.908311,4957.08864 918.70896,4957.15573 918.483028,4957.27648 C918.243806,4957.41065 917.712202,4957.61191 917.313499,4957.73267 L916.595833,4957.96076 L915.944618,4957.51799 C915.585785,4957.27648 915.080761,4957.00814 914.814958,4956.92764 C914.137163,4956.73979 913.100535,4956.76663 912.48919,4956.9813 C910.827926,4957.58508 909.778008,4959.14147 909.897619,4960.84546 Z" id="Twitter"></path>
        </g>
    </g>
</svg>